<svg id="Capa_1" enable-background="new 0 0 512 512" height="512" viewBox="0 0 512 512" width="512" xmlns="http://www.w3.org/2000/svg"><g><g><g><g><g><g><path d="m334.916 224.362c-.113-.247-.227-.494-.341-.741-8.178-17.622-12.161-36.899-12.169-56.326l-.016-40.763c0-58.064-37.879-107.273-90.271-124.286-58.89 11.179-103.42 62.912-103.42 125.054l-.016 39.715c-.008 18.928-3.889 37.71-11.857 54.879-.111.24-.222.481-.332.721-17.586 38.495 6.751 83.601 48.679 89.364 4.069.559 8.225.848 12.448.848h120.56c34.68-12.543 52.843-53.205 36.735-88.465z" fill="#e7a561"/><g><path d="m157.864 129.993h24.808v58.374h-24.808c-16.123 0-29.191-13.072-29.187-29.195.004-16.116 13.07-29.179 29.187-29.179z" fill="#ffcbbe"/></g><path d="m395.506 222.616c-.11-.241-.221-.481-.332-.722-7.968-17.169-11.849-35.951-11.856-54.879l-.016-39.715c-.001-70.306-56.996-127.3-127.302-127.3-11.822 0-23.265 1.618-34.126 4.633 53.733 14.917 93.174 64.183 93.174 122.667l.016 39.715c.008 18.928 3.888 37.71 11.856 54.879.111.24.222.481.332.722 17.586 38.495-6.751 83.601-48.679 89.363-4.069.559-8.225.848-12.448.848h68.253c4.223 0 8.379-.289 12.448-.848 41.929-5.762 66.265-50.867 48.68-89.363z" fill="#e49542"/><g><g><g><g><g><g><path d="m256 366.332c30.147 0 57.094-13.622 75.068-35.035 6.096-7.263 2.063-18.421-7.249-20.213-11.727-2.257-20.203-12.519-20.203-24.461v-68.417h-95.233v68.418c0 11.942-8.475 22.204-20.202 24.461-9.312 1.792-13.345 12.95-7.249 20.213 17.974 21.412 44.921 35.034 75.068 35.034z" fill="#ffcbbe"/><path d="m163.424 378.686v124.314l8.437 9h168.278l8.437-9v-124.314c0-8.668-.727-17.291-2.129-25.79-11.383-8.42-24.016-15.323-37.635-20.373-13.81 12.961-32.378 20.907-52.813 20.907-30.023 0-56.025-17.139-68.808-42.157l-9.549 1.838c-9.351 20.574-14.218 42.928-14.218 65.575z" fill="#f9f6f9"/><path d="m325.322 312.354-.514-1.08c-5.138 10.055-12.415 18.834-21.227 25.742 12.495 4.403 24.155 10.417 34.764 17.768-2.253-14.66-6.62-28.959-13.023-42.43z" fill="#dddaec"/><g><g fill="#9bc4f9"><path d="m42.461 460.623v26.971c0 13.479 10.927 24.406 24.406 24.406h37.974v-3.849h15.453v3.849h51.568v-132.168c0-23.876 5.589-47.42 16.32-68.748l-26.405 5.082c-69.26 13.324-119.316 73.929-119.316 144.457z"/><path d=""/></g><path d="m336.799 346.316c2.204 10.4 3.34 21.03 3.34 31.726v133.958h51.567v-3.849h15.453v3.849h1.314v-36.137c0-53.914-28.147-102.238-71.674-129.547z" fill="#9bc4f9"/><path d="m350.224 316.165-.547-.105-24.868-4.786.514 1.08c6.403 13.471 10.769 27.77 13.024 42.43 38.685 26.804 63.374 71.432 63.374 120.961v32.406h5.439v3.849h37.974c13.479 0 24.406-10.927 24.406-24.406v-26.967c-.001-70.529-50.057-131.135-119.316-144.462z" fill="#7fb2f9"/></g><g fill="#61a2f9"><path d="m120.294 511.738v-46.111c0-4.268-3.459-7.726-7.726-7.726s-7.726 3.459-7.726 7.726v46.111c0 .088.01.174.013.262h15.426c.002-.088.013-.173.013-.262z"/><path d="m399.433 457.901c-4.268 0-7.726 3.459-7.726 7.726v46.373h15.453v-46.372c-.001-4.268-3.46-7.727-7.727-7.727z"/></g></g></g></g></g></g><path d="m331.058 198.175h31.231c13.252 0 23.996-10.743 23.996-23.995v-29.999c0-13.252-10.743-23.996-23.996-23.996h-31.231z" fill="#365e7d"/><path d="m332.96 219.981c-7.085-16.621-10.547-34.588-10.554-52.686l-.016-40.763c0-15.781-2.801-30.906-7.928-44.91-4.385-1.539-9.097-2.385-14.008-2.385-11.332 0-22.19 4.546-30.142 12.62-9.156 9.296-21.658 14.53-34.705 14.53h-38.108c-15.606 0-28.257 12.651-28.257 28.257v46.596c.715 47.318 39.272 85.461 86.76 85.461 33.47 0 62.484-18.963 76.958-46.72z" fill="#ffddce"/><path d="m342.76 121.544c0-21.559-16.13-39.339-36.978-41.961 5.965 14.738 9.267 30.84 9.267 47.717l.016 39.715c.008 18.928 3.888 37.71 11.856 54.879.111.24.222.481.332.722.636 1.392 1.211 2.794 1.738 4.202 8.483-13.181 13.515-28.796 13.769-45.578z" fill="#ffcbbe"/></g></g></g></g></g></g><path d="m362.29 198.175h-8.346v23.029c0 6.081-4.947 11.028-11.029 11.028h-29.892c-4.143 0-7.5 3.357-7.5 7.5s3.357 7.5 7.5 7.5h29.892c14.353 0 26.029-11.676 26.029-26.028v-23.971c-2.114.609-4.345.942-6.654.942z" fill="#f9f6f9"/><g><path d="m306.076 255.927h-23.434c-8.944 0-16.194-7.25-16.194-16.194 0-8.944 7.25-16.194 16.194-16.194h23.434c8.944 0 16.194 7.25 16.194 16.194 0 8.943-7.25 16.194-16.194 16.194z" fill="#475959"/></g></g></svg>